# WaveFront *.obj file (generated by CINEMA 4D)

mtllib ./1_portrait.mtl

v -134.57771301269531 -212 -69.96490478515625
v -134.57771301269531 212 -69.96490478515625
v 108.12738037109375 -212 106.37066650390625
v 108.12738037109375 212 106.37066650390625
v 134.57771301269531 -212 69.96490478515625
v 134.57771301269531 212 69.96490478515625
v -108.12738037109375 -212 -106.37066650390625
v -108.12738037109375 212 -106.37066650390625
# 8 vertices

vn -0.58778524398804 0 0.80901700258255
vn 0.80901700258255 0 0.58778524398804
vn 0.58778524398804 0 -0.80901700258255
vn -0.80901700258255 0 -0.58778524398804
vn 0 1 0
vn 0 -1 0
# 6 normals

vt 0 0 0
vt 0 1 0
vt 1 1 0
vt 1 0 0
# 4 texture coordinates

o Cube_1
usemtl Mat 1
f 3/4/1 4/3/1 2/2/1 1/1/1
f 7/4/3 8/3/3 6/2/3 5/1/3

usemtl default
f 5/4/2 6/3/2 4/2/2 3/1/2
f 1/4/4 2/3/4 8/2/4 7/1/4
f 4/4/5 6/3/5 8/2/5 2/1/5
f 5/4/6 3/3/6 1/2/6 7/1/6

