# WaveFront *.obj file (generated by CINEMA 4D)

mtllib ./triangle.mtl

v -0.3925045132637 0.12777097523212 -6.68850994110107
v -3.99317574501038 0.13286058604717 2.52118277549744
v 5.78298902511597 0.13208086788654 1.0346086025238
# 3 vertices

vn 0.00000454782548 -0.99999982118607 0.00055441440782
vn 0 0 0
# 2 normals

vt 0.30000001192093 0.307000041008 0
vt 0.20000000298023 0.48000001907349 0
vt 0.39999997615814 0.48000001907349 0
vt 0 1 0
# 4 texture coordinates

o Platonic
usemtl default
f 2/3/1 1/2/1 3/1/1

