# WaveFront *.obj file (generated by CINEMA 4D)

mtllib ./4_portrait.mtl

v -158.22576904296875 -243.72767639160156 -347.123291015625
v -158.22576904296875 180.27232360839844 -347.123291015625
v 141.77423095703125 -243.72767639160156 -347.123291015625
v 141.77423095703125 180.27232360839844 -347.123291015625
v 141.77423095703125 -243.72767639160156 -392.123291015625
v 141.77423095703125 180.27232360839844 -392.123291015625
v -158.22576904296875 -243.72767639160156 -392.123291015625
v -158.22576904296875 180.27232360839844 -392.123291015625
# 8 vertices

vn 0 0 1
vn 1 0 0
vn 0 0 -1
vn -1 0 0
vn 0 1 0
vn 0 -1 0
# 6 normals

vt 0 0 0
vt 0 1 0
vt 1 1 0
vt 1 0 0
# 4 texture coordinates

o Cube_1
usemtl Mat 1
f 3/4/1 4/3/1 2/2/1 1/1/1
f 7/4/3 8/3/3 6/2/3 5/1/3

usemtl default
f 5/4/2 6/3/2 4/2/2 3/1/2
f 1/4/4 2/3/4 8/2/4 7/1/4
f 4/4/5 6/3/5 8/2/5 2/1/5
f 5/4/6 3/3/6 1/2/6 7/1/6

v 240.04637145996094 -319.0380859375 -212.89511108398438
v 240.04637145996094 104.96192932128906 -212.89511108398438
v 332.75146484375 -319.0380859375 72.42183685302734
v 332.75146484375 104.96192932128906 72.42183685302734
v 375.54901123046875 -319.0380859375 58.51607513427734
v 375.54901123046875 104.96192932128906 58.51607513427734
v 282.84393310546875 -319.0380859375 -226.80087280273438
v 282.84393310546875 104.96192932128906 -226.80087280273438
# 8 vertices

vn -0.95105654001236 0 0.30901700258255
vn 0.30901688337326 0 0.95105654001236
vn 0.95105654001236 0 -0.30901691317558
vn -0.30901682376862 0 -0.951056599617
# 4 normals

# 0 texture coordinate

o Cube_2
usemtl Mat 2
f 11/4/7 12/3/7 10/2/7 9/1/7
f 15/4/9 16/3/9 14/2/9 13/1/9

usemtl default
f 13/4/8 14/3/8 12/2/8 11/1/8
f 9/4/10 10/3/10 16/2/10 15/1/10
f 12/4/5 14/3/5 16/2/5 10/1/5
f 13/4/6 11/3/6 9/2/6 15/1/6

v 267.9061279296875 -264.364013671875 179.15908813476562
v 267.9061279296875 159.635986328125 179.15908813476562
v 25.20102882385254 -264.364013671875 355.49465942382812
v 25.20102882385254 159.635986328125 355.49465942382812
v 51.6513671875 -264.364013671875 391.90042114257812
v 51.6513671875 159.635986328125 391.90042114257812
v 294.35647583007812 -264.364013671875 215.56484985351562
v 294.35647583007812 159.635986328125 215.56484985351562
# 8 vertices

vn -0.58778524398804 0 -0.80901700258255
vn -0.80901694297791 0 0.58778530359268
vn 0.58778524398804 0 0.80901700258255
vn 0.80901682376862 0 -0.58778548240662
# 4 normals

# 0 texture coordinate

o Cube_3
usemtl Mat 3
f 19/4/11 20/3/11 18/2/11 17/1/11
f 23/4/13 24/3/13 22/2/13 21/1/13

usemtl default
f 21/4/12 22/3/12 20/2/12 19/1/12
f 17/4/14 18/3/14 24/2/14 23/1/14
f 20/4/5 22/3/5 24/2/5 18/1/5
f 21/4/6 19/3/6 17/2/6 23/1/6

v -99.02682495117188 -227.13554382324219 384.47308349609375
v -99.02682495117188 196.86445617675781 384.47308349609375
v -341.73193359375 -227.13554382324219 208.13751220703125
v -341.73193359375 196.86445617675781 208.13751220703125
v -368.1822509765625 -227.13554382324219 244.54327392578125
v -368.1822509765625 196.86445617675781 244.54327392578125
v -125.47715759277344 -227.13554382324219 420.87884521484375
v -125.47715759277344 196.86445617675781 420.87884521484375
# 8 vertices

vn 0.58778524398804 0 -0.80901700258255
vn -0.80901718139648 0 -0.58778500556946
vn -0.58778524398804 0 0.80901700258255
vn 0.80901700258255 0 0.58778524398804
# 4 normals

# 0 texture coordinate

o Cube_4
usemtl Mat 4
f 27/4/15 28/3/15 26/2/15 25/1/15
f 31/4/17 32/3/17 30/2/17 29/1/17

usemtl default
f 29/4/16 30/3/16 28/2/16 27/1/16
f 25/4/18 26/3/18 32/2/18 31/1/18
f 28/4/5 30/3/5 32/2/5 26/1/5
f 29/4/6 27/3/6 25/2/6 31/1/6

