# WaveFront *.obj file (generated by CINEMA 4D)

mtllib ./8_square.mtl

v -120 -120 -642
v -120 120 -642
v 120 -120 -642
v 120 120 -642
v 120 -120 -678
v 120 120 -678
v -120 -120 -678
v -120 120 -678
# 8 vertices

vn 0 0 1
vn 1 0 0
vn 0 0 -1
vn -1 0 0
vn 0 1 0
vn 0 -1 0
# 6 normals

vt 0 0 0
vt 0 1 0
vt 1 1 0
vt 1 0 0
# 4 texture coordinates

o Cube_0
usemtl Mat
f 3/4/1 4/3/1 2/2/1 1/1/1
f 7/4/3 8/3/3 6/2/3 5/1/3

usemtl default
f 5/4/2 6/3/2 4/2/2 3/1/2
f 1/4/4 2/3/4 8/2/4 7/1/4
f 4/4/5 6/3/5 8/2/5 2/1/5
f 5/4/6 3/3/6 1/2/6 7/1/6

v 280.27609252929688 -120 -589.92315673828125
v 280.27609252929688 120 -589.92315673828125
v 474.440185546875 -120 -448.85467529296875
v 474.440185546875 120 -448.85467529296875
v 495.60043334960938 -120 -477.97927856445312
v 495.60043334960938 120 -477.97927856445312
v 301.43637084960938 -120 -619.0477294921875
v 301.43637084960938 120 -619.0477294921875
# 8 vertices

vn -0.58778530359268 0 0.80901694297791
vn 0.80901718139648 0 0.58778494596481
vn 0.58778530359268 0 -0.80901700258255
vn -0.80901652574539 0 -0.58778595924377
# 4 normals

# 0 texture coordinate

o Cube_1
usemtl Mat_9
f 11/4/7 12/3/7 10/2/7 9/1/7
f 15/4/9 16/3/9 14/2/9 13/1/9

usemtl default
f 13/4/8 14/3/8 12/2/8 11/1/8
f 9/4/10 10/3/10 16/2/10 15/1/10
f 12/4/5 14/3/5 16/2/5 10/1/5
f 13/4/6 11/3/6 9/2/6 15/1/6

v 573.4962158203125 -120 -312.51568603515625
v 573.4962158203125 120 -312.51568603515625
v 647.66033935546875 -120 -84.26213073730469
v 647.66033935546875 120 -84.26213073730469
v 681.89837646484375 -120 -95.38674163818359
v 681.89837646484375 120 -95.38674163818359
v 607.7342529296875 -120 -323.64028930664062
v 607.7342529296875 120 -323.64028930664062
# 8 vertices

vn -0.95105642080307 0 0.30901721119881
vn 0.30901694297791 0 0.95105654001236
vn 0.95105642080307 0 -0.30901721119881
vn -0.30901676416397 0 -0.951056599617
# 4 normals

# 0 texture coordinate

o Cube_2
usemtl Mat_8
f 19/4/11 20/3/11 18/2/11 17/1/11
f 23/4/13 24/3/13 22/2/13 21/1/13

usemtl default
f 21/4/12 22/3/12 20/2/12 19/1/12
f 17/4/14 18/3/14 24/2/14 23/1/14
f 20/4/5 22/3/5 24/2/5 18/1/5
f 21/4/6 19/3/6 17/2/6 23/1/6

v 647.66033935546875 -120 84.26213073730469
v 647.66033935546875 120 84.26213073730469
v 573.4962158203125 -120 312.51568603515625
v 573.4962158203125 120 312.51568603515625
v 607.7342529296875 -120 323.64028930664062
v 607.7342529296875 120 323.64028930664062
v 681.89837646484375 -120 95.38674163818359
v 681.89837646484375 120 95.38674163818359
# 8 vertices

vn -0.95105642080307 0 -0.30901721119881
vn -0.30901676416397 0 0.951056599617
vn 0.95105642080307 0 0.30901721119881
vn 0.30901694297791 0 -0.95105654001236
# 4 normals

# 0 texture coordinate

o Cube_3
usemtl Mat_7
f 27/4/15 28/3/15 26/2/15 25/1/15
f 31/4/17 32/3/17 30/2/17 29/1/17

usemtl default
f 29/4/16 30/3/16 28/2/16 27/1/16
f 25/4/18 26/3/18 32/2/18 31/1/18
f 28/4/5 30/3/5 32/2/5 26/1/5
f 29/4/6 27/3/6 25/2/6 31/1/6

v 120 -120 642
v 120 120 642
v -120 -120 642
v -120 120 642
v -120 -120 678
v -120 120 678
v 120 -120 678
v 120 120 678
# 8 vertices

# 0 normal

# 0 texture coordinate

o Cube_5
usemtl Mat_5
f 35/4/3 36/3/3 34/2/3 33/1/3
f 39/4/1 40/3/1 38/2/1 37/1/1

usemtl default
f 37/4/4 38/3/4 36/2/4 35/1/4
f 33/4/2 34/3/2 40/2/2 39/1/2
f 36/4/5 38/3/5 40/2/5 34/1/5
f 37/4/6 35/3/6 33/2/6 39/1/6

v -280.27609252929688 -120 589.92315673828125
v -280.27609252929688 120 589.92315673828125
v -474.440185546875 -120 448.85467529296875
v -474.440185546875 120 448.85467529296875
v -495.60043334960938 -120 477.97927856445312
v -495.60043334960938 120 477.97927856445312
v -301.43637084960938 -120 619.0477294921875
v -301.43637084960938 120 619.0477294921875
# 8 vertices

vn 0.58778530359268 0 -0.80901694297791
vn -0.80901718139648 0 -0.58778494596481
vn -0.58778530359268 0 0.80901700258255
vn 0.80901652574539 0 0.58778595924377
# 4 normals

# 0 texture coordinate

o Cube_6
usemtl Mat_4
f 43/4/19 44/3/19 42/2/19 41/1/19
f 47/4/21 48/3/21 46/2/21 45/1/21

usemtl default
f 45/4/20 46/3/20 44/2/20 43/1/20
f 41/4/22 42/3/22 48/2/22 47/1/22
f 44/4/5 46/3/5 48/2/5 42/1/5
f 45/4/6 43/3/6 41/2/6 47/1/6

v -573.4962158203125 -120 312.51568603515625
v -573.4962158203125 120 312.51568603515625
v -647.66033935546875 -120 84.26213073730469
v -647.66033935546875 120 84.26213073730469
v -681.89837646484375 -120 95.38674163818359
v -681.89837646484375 120 95.38674163818359
v -607.7342529296875 -120 323.64028930664062
v -607.7342529296875 120 323.64028930664062
# 8 vertices

vn -0.30901694297791 0 -0.95105654001236
vn 0.30901676416397 0 0.951056599617
# 2 normals

# 0 texture coordinate

o Cube_7
usemtl Mat_3
f 51/4/13 52/3/13 50/2/13 49/1/13
f 55/4/11 56/3/11 54/2/11 53/1/11

usemtl default
f 53/4/23 54/3/23 52/2/23 51/1/23
f 49/4/24 50/3/24 56/2/24 55/1/24
f 52/4/5 54/3/5 56/2/5 50/1/5
f 53/4/6 51/3/6 49/2/6 55/1/6

v -647.66033935546875 -120 -84.26213073730469
v -647.66033935546875 120 -84.26213073730469
v -573.4962158203125 -120 -312.51568603515625
v -573.4962158203125 120 -312.51568603515625
v -607.7342529296875 -120 -323.64028930664062
v -607.7342529296875 120 -323.64028930664062
v -681.89837646484375 -120 -95.38674163818359
v -681.89837646484375 120 -95.38674163818359
# 8 vertices

vn 0.30901676416397 0 -0.951056599617
vn -0.30901694297791 0 0.95105654001236
# 2 normals

# 0 texture coordinate

o Cube_8
usemtl Mat_6
f 59/4/17 60/3/17 58/2/17 57/1/17
f 61/4/25 62/3/25 60/2/25 59/1/25
f 63/4/15 64/3/15 62/2/15 61/1/15
f 57/4/26 58/3/26 64/2/26 63/1/26
f 60/4/5 62/3/5 64/2/5 58/1/5
f 61/4/6 59/3/6 57/2/6 63/1/6

