# WaveFront *.obj file (generated by CINEMA 4D)

mtllib ./8_portrait.mtl

v -158.23091125488281 -305.56448364257812 -465.374755859375
v -158.23091125488281 118.43550109863281 -465.374755859375
v 141.76908874511719 -305.56448364257812 -465.374755859375
v 141.76908874511719 118.43550109863281 -465.374755859375
v 141.76908874511719 -305.56448364257812 -510.374755859375
v 141.76908874511719 118.43550109863281 -510.374755859375
v -158.23091125488281 -305.56448364257812 -510.374755859375
v -158.23091125488281 118.43550109863281 -510.374755859375
# 8 vertices

vn 0 0 1
vn 1 0 0
vn 0 0 -1
vn -1 0 0
vn 0 1 0
vn 0 -1 0
# 6 normals

vt 0 0 0
vt 0 1 0
vt 1 1 0
vt 1 0 0
# 4 texture coordinates

o Cube_1
usemtl Mat 1
f 3/4/1 4/3/1 2/2/1 1/1/1
f 7/4/3 8/3/3 6/2/3 5/1/3

usemtl default
f 5/4/2 6/3/2 4/2/2 3/1/2
f 1/4/4 2/3/4 8/2/4 7/1/4
f 4/4/5 6/3/5 8/2/5 2/1/5
f 5/4/6 3/3/6 1/2/6 7/1/6

v 272.06246948242188 -196.58441162109375 -447.78265380859375
v 272.06246948242188 227.41558837890625 -447.78265380859375
v 484.19448852539062 -196.58441162109375 -235.65061950683594
v 484.19448852539062 227.41558837890625 -235.65061950683594
v 516.0142822265625 -196.58441162109375 -267.47042846679688
v 516.0142822265625 227.41558837890625 -267.47042846679688
v 303.88226318359375 -196.58441162109375 -479.60244750976562
v 303.88226318359375 227.41558837890625 -479.60244750976562
# 8 vertices

vn -0.70710682868958 0 0.70710676908493
vn 0.70710694789886 0 0.707106590271
vn 0.70710676908493 0 -0.70710676908493
vn -0.70710676908493 0 -0.70710676908493
# 4 normals

# 0 texture coordinate

o Cube_2
usemtl Mat 2
f 11/4/7 12/3/7 10/2/7 9/1/7
f 15/4/9 16/3/9 14/2/9 13/1/9

usemtl default
f 13/4/8 14/3/8 12/2/8 11/1/8
f 9/4/10 10/3/10 16/2/10 15/1/10
f 12/4/5 14/3/5 16/2/5 10/1/5
f 13/4/6 11/3/6 9/2/6 15/1/6

v 535.146240234375 -110.15248870849609 -110.94538879394531
v 535.146240234375 313.84750366210938 -110.94538879394531
v 535.146240234375 -110.15248870849609 189.05461120605469
v 535.146240234375 313.84750366210938 189.05461120605469
v 580.146240234375 -110.15248870849609 189.05461120605469
v 580.146240234375 313.84750366210938 189.05461120605469
v 580.146240234375 -110.15248870849609 -110.94538879394531
v 580.146240234375 313.84750366210938 -110.94538879394531
# 8 vertices

# 0 normal

# 0 texture coordinate

o Cube_3
usemtl Mat 3
f 19/4/4 20/3/4 18/2/4 17/1/4
f 23/4/2 24/3/2 22/2/2 21/1/2

usemtl default
f 21/4/1 22/3/1 20/2/1 19/1/1
f 17/4/3 18/3/3 24/2/3 23/1/3
f 20/4/5 22/3/5 24/2/5 18/1/5
f 21/4/6 19/3/6 17/2/6 23/1/6

v -498.78424072265625 -82.84444427490234 187.91297912597656
v -498.78424072265625 341.15554809570312 187.91297912597656
v -498.78424072265625 -82.84444427490234 -112.08702850341797
v -498.78424072265625 341.15554809570312 -112.08702850341797
v -543.78424072265625 -82.84444427490234 -112.08702850341797
v -543.78424072265625 341.15554809570312 -112.08702850341797
v -543.78424072265625 -82.84444427490234 187.91297912597656
v -543.78424072265625 341.15554809570312 187.91297912597656
# 8 vertices

# 0 normal

# 0 texture coordinate

o Cube_4
usemtl Mat 4
f 27/4/2 28/3/2 26/2/2 25/1/2
f 31/4/4 32/3/4 30/2/4 29/1/4

usemtl default
f 29/4/3 30/3/3 28/2/3 27/1/3
f 25/4/1 26/3/1 32/2/1 31/1/1
f 28/4/5 30/3/5 32/2/5 26/1/5
f 29/4/6 27/3/6 25/2/6 31/1/6

v 465.69464111328125 -217.71235656738281 229.73252868652344
v 465.69464111328125 206.28764343261719 229.73252868652344
v 253.5626220703125 -217.71235656738281 441.86456298828125
v 253.5626220703125 206.28764343261719 441.86456298828125
v 285.38241577148438 -217.71235656738281 473.68438720703125
v 285.38241577148438 206.28764343261719 473.68438720703125
v 497.51446533203125 -217.71235656738281 261.55233764648438
v 497.51446533203125 206.28764343261719 261.55233764648438
# 8 vertices

vn -0.70710682868958 0 -0.70710676908493
vn -0.7071071267128 0 0.70710647106171
vn 0.70710676908493 0 0.70710676908493
vn 0.707106590271 0 -0.70710694789886
# 4 normals

# 0 texture coordinate

o Cube_5
usemtl Mat 5
f 35/4/11 36/3/11 34/2/11 33/1/11
f 39/4/13 40/3/13 38/2/13 37/1/13

usemtl default
f 37/4/12 38/3/12 36/2/12 35/1/12
f 33/4/14 34/3/14 40/2/14 39/1/14
f 36/4/5 38/3/5 40/2/5 34/1/5
f 37/4/6 35/3/6 33/2/6 39/1/6

v 133.05221557617188 -184.332275390625 493.52548217773438
v 133.05221557617188 239.667724609375 493.52548217773438
v -166.94778442382812 -184.332275390625 493.52548217773438
v -166.94778442382812 239.667724609375 493.52548217773438
v -166.94778442382812 -184.332275390625 538.5255126953125
v -166.94778442382812 239.667724609375 538.5255126953125
v 133.05221557617188 -184.332275390625 538.5255126953125
v 133.05221557617188 239.667724609375 538.5255126953125
# 8 vertices

# 0 normal

# 0 texture coordinate

o Cube_6
usemtl Mat 6
f 43/4/3 44/3/3 42/2/3 41/1/3
f 47/4/1 48/3/1 46/2/1 45/1/1

usemtl default
f 45/4/4 46/3/4 44/2/4 43/1/4
f 41/4/2 42/3/2 48/2/2 47/1/2
f 44/4/5 46/3/5 48/2/5 42/1/5
f 45/4/6 43/3/6 41/2/6 47/1/6

v -465.27902221679688 -356.13662719726562 -205.68606567382812
v -465.27902221679688 67.86338806152344 -205.68606567382812
v -253.14700317382812 -356.13662719726562 -417.81808471679688
v -253.14700317382812 67.86338806152344 -417.81808471679688
v -284.966796875 -356.13662719726562 -449.63790893554688
v -284.966796875 67.86338806152344 -449.63790893554688
v -497.09884643554688 -356.13662719726562 -237.505859375
v -497.09884643554688 67.86338806152344 -237.505859375
# 8 vertices

vn 0.7071071267128 0 -0.70710647106171
vn -0.70710647106171 0 0.7071071267128
# 2 normals

# 0 texture coordinate

o Cube_7
usemtl Mat 7
f 51/4/13 52/3/13 50/2/13 49/1/13
f 55/4/10 56/3/10 54/2/10 53/1/10

usemtl default
f 53/4/15 54/3/15 52/2/15 51/1/15
f 49/4/16 50/3/16 56/2/16 55/1/16
f 52/4/5 54/3/5 56/2/5 50/1/5
f 53/4/6 51/3/6 49/2/6 55/1/6

v -210.10330200195312 -40.73163986206055 476.05694580078125
v -210.10330200195312 383.26837158203125 476.05694580078125
v -422.2353515625 -40.73163986206055 263.92489624023438
v -422.2353515625 383.26837158203125 263.92489624023438
v -454.05514526367188 -40.73163986206055 295.74472045898438
v -454.05514526367188 383.26837158203125 295.74472045898438
v -241.92311096191406 -40.73163986206055 507.87673950195312
v -241.92311096191406 383.26837158203125 507.87673950195312
# 8 vertices

vn -0.7071071267128 0 -0.70710647106171
vn -0.70710676908493 0 0.70710682868958
vn 0.707106590271 0 0.70710694789886
# 3 normals

# 0 texture coordinate

o Cube_8
usemtl Mat 8
f 59/4/9 60/3/9 58/2/9 57/1/9
f 63/4/18 64/3/18 62/2/18 61/1/18

usemtl default
f 61/4/17 62/3/17 60/2/17 59/1/17
f 57/4/19 58/3/19 64/2/19 63/1/19
f 60/4/5 62/3/5 64/2/5 58/1/5
f 61/4/6 59/3/6 57/2/6 63/1/6

