# WaveFront *.obj file (generated by CINEMA 4D)

mtllib ./15_square.mtl

v -158.23091125488281 -404.82119750976562 -465.374755859375
v -158.23091125488281 -104.82121276855469 -465.374755859375
v 141.76908874511719 -404.82119750976562 -465.374755859375
v 141.76908874511719 -104.82121276855469 -465.374755859375
v 141.76908874511719 -404.82119750976562 -510.374755859375
v 141.76908874511719 -104.82121276855469 -510.374755859375
v -158.23091125488281 -404.82119750976562 -510.374755859375
v -158.23091125488281 -104.82121276855469 -510.374755859375
# 8 vertices

vn 0 0 1
vn 1 0 0
vn 0 0 -1
vn -1 0 0
vn 0 1 0
vn 0 -1 0
# 6 normals

vt 0 0 0
vt 0 1 0
vt 1 1 0
vt 1 0 0
# 4 texture coordinates

o Cube_1
usemtl Mat 1
f 3/4/1 4/3/1 2/2/1 1/1/1
f 7/4/3 8/3/3 6/2/3 5/1/3

usemtl default
f 5/4/2 6/3/2 4/2/2 3/1/2
f 1/4/4 2/3/4 8/2/4 7/1/4
f 4/4/5 6/3/5 8/2/5 2/1/5
f 5/4/6 3/3/6 1/2/6 7/1/6

v 272.06246948242188 -295.84112548828125 -447.78265380859375
v 272.06246948242188 4.15886878967285 -447.78265380859375
v 484.19448852539062 -295.84112548828125 -235.65061950683594
v 484.19448852539062 4.15886878967285 -235.65061950683594
v 516.0142822265625 -295.84112548828125 -267.47042846679688
v 516.0142822265625 4.15886878967285 -267.47042846679688
v 303.88226318359375 -295.84112548828125 -479.60244750976562
v 303.88226318359375 4.15886878967285 -479.60244750976562
# 8 vertices

vn -0.70710682868958 0 0.70710676908493
vn 0.70710694789886 0 0.70710664987564
vn 0.70710676908493 0 -0.70710676908493
vn -0.70710676908493 0 -0.70710676908493
# 4 normals

# 0 texture coordinate

o Cube_2
usemtl Mat 2
f 11/4/7 12/3/7 10/2/7 9/1/7
f 15/4/9 16/3/9 14/2/9 13/1/9

usemtl default
f 13/4/8 14/3/8 12/2/8 11/1/8
f 9/4/10 10/3/10 16/2/10 15/1/10
f 12/4/5 14/3/5 16/2/5 10/1/5
f 13/4/6 11/3/6 9/2/6 15/1/6

v 535.146240234375 -209.40919494628906 -110.94538879394531
v 535.146240234375 90.59079742431641 -110.94538879394531
v 535.146240234375 -209.40919494628906 189.05461120605469
v 535.146240234375 90.59079742431641 189.05461120605469
v 580.146240234375 -209.40919494628906 189.05461120605469
v 580.146240234375 90.59079742431641 189.05461120605469
v 580.146240234375 -209.40919494628906 -110.94538879394531
v 580.146240234375 90.59079742431641 -110.94538879394531
# 8 vertices

# 0 normal

# 0 texture coordinate

o Cube_3
usemtl Mat 3
f 19/4/4 20/3/4 18/2/4 17/1/4
f 23/4/2 24/3/2 22/2/2 21/1/2

usemtl default
f 21/4/1 22/3/1 20/2/1 19/1/1
f 17/4/3 18/3/3 24/2/3 23/1/3
f 20/4/5 22/3/5 24/2/5 18/1/5
f 21/4/6 19/3/6 17/2/6 23/1/6

v -498.78424072265625 -182.10115051269531 187.91297912597656
v -498.78424072265625 117.89884185791016 187.91297912597656
v -498.78424072265625 -182.10115051269531 -112.08702850341797
v -498.78424072265625 117.89884185791016 -112.08702850341797
v -543.78424072265625 -182.10115051269531 -112.08702850341797
v -543.78424072265625 117.89884185791016 -112.08702850341797
v -543.78424072265625 -182.10115051269531 187.91297912597656
v -543.78424072265625 117.89884185791016 187.91297912597656
# 8 vertices

# 0 normal

# 0 texture coordinate

o Cube_4
usemtl Mat 4
f 27/4/2 28/3/2 26/2/2 25/1/2
f 31/4/4 32/3/4 30/2/4 29/1/4

usemtl default
f 29/4/3 30/3/3 28/2/3 27/1/3
f 25/4/1 26/3/1 32/2/1 31/1/1
f 28/4/5 30/3/5 32/2/5 26/1/5
f 29/4/6 27/3/6 25/2/6 31/1/6

v 465.69464111328125 -316.96905517578125 229.73252868652344
v 465.69464111328125 -16.96906471252441 229.73252868652344
v 253.5626220703125 -316.96905517578125 441.86456298828125
v 253.5626220703125 -16.96906471252441 441.86456298828125
v 285.38241577148438 -316.96905517578125 473.68438720703125
v 285.38241577148438 -16.96906471252441 473.68438720703125
v 497.51446533203125 -316.96905517578125 261.55233764648438
v 497.51446533203125 -16.96906471252441 261.55233764648438
# 8 vertices

vn -0.70710682868958 0 -0.70710676908493
vn -0.7071071267128 0 0.70710647106171
vn 0.70710676908493 0 0.70710676908493
vn 0.707106590271 0 -0.70710694789886
# 4 normals

# 0 texture coordinate

o Cube_5
usemtl Mat 5
f 35/4/11 36/3/11 34/2/11 33/1/11
f 39/4/13 40/3/13 38/2/13 37/1/13

usemtl default
f 37/4/12 38/3/12 36/2/12 35/1/12
f 33/4/14 34/3/14 40/2/14 39/1/14
f 36/4/5 38/3/5 40/2/5 34/1/5
f 37/4/6 35/3/6 33/2/6 39/1/6

v 133.05221557617188 -283.5889892578125 493.52548217773438
v 133.05221557617188 16.41100311279297 493.52548217773438
v -166.94778442382812 -283.5889892578125 493.52548217773438
v -166.94778442382812 16.41100311279297 493.52548217773438
v -166.94778442382812 -283.5889892578125 538.5255126953125
v -166.94778442382812 16.41100311279297 538.5255126953125
v 133.05221557617188 -283.5889892578125 538.5255126953125
v 133.05221557617188 16.41100311279297 538.5255126953125
# 8 vertices

# 0 normal

# 0 texture coordinate

o Cube_6
usemtl Mat 6
f 43/4/3 44/3/3 42/2/3 41/1/3
f 47/4/1 48/3/1 46/2/1 45/1/1

usemtl default
f 45/4/4 46/3/4 44/2/4 43/1/4
f 41/4/2 42/3/2 48/2/2 47/1/2
f 44/4/5 46/3/5 48/2/5 42/1/5
f 45/4/6 43/3/6 41/2/6 47/1/6

v -465.27902221679688 -455.39334106445312 -205.68606567382812
v -465.27902221679688 -155.39332580566406 -205.68606567382812
v -253.14700317382812 -455.39334106445312 -417.81808471679688
v -253.14700317382812 -155.39332580566406 -417.81808471679688
v -284.966796875 -455.39334106445312 -449.63790893554688
v -284.966796875 -155.39332580566406 -449.63790893554688
v -497.09884643554688 -455.39334106445312 -237.505859375
v -497.09884643554688 -155.39332580566406 -237.505859375
# 8 vertices

vn 0.7071071267128 0 -0.70710647106171
vn -0.70710647106171 0 0.7071071267128
# 2 normals

# 0 texture coordinate

o Cube_7
usemtl Mat 7
f 51/4/13 52/3/13 50/2/13 49/1/13
f 55/4/10 56/3/10 54/2/10 53/1/10

usemtl default
f 53/4/15 54/3/15 52/2/15 51/1/15
f 49/4/16 50/3/16 56/2/16 55/1/16
f 52/4/5 54/3/5 56/2/5 50/1/5
f 53/4/6 51/3/6 49/2/6 55/1/6

v -210.10330200195312 -139.98835754394531 476.05694580078125
v -210.10330200195312 160.01164245605469 476.05694580078125
v -422.2353515625 -139.98835754394531 263.92489624023438
v -422.2353515625 160.01164245605469 263.92489624023438
v -454.05514526367188 -139.98835754394531 295.74472045898438
v -454.05514526367188 160.01164245605469 295.74472045898438
v -241.92311096191406 -139.98835754394531 507.87673950195312
v -241.92311096191406 160.01164245605469 507.87673950195312
# 8 vertices

vn -0.7071071267128 0 -0.70710647106171
vn -0.70710676908493 0 0.70710682868958
vn 0.70710664987564 0 0.70710694789886
# 3 normals

# 0 texture coordinate

o Cube_8
usemtl Mat 8
f 59/4/9 60/3/9 58/2/9 57/1/9
f 63/4/18 64/3/18 62/2/18 61/1/18

usemtl default
f 61/4/17 62/3/17 60/2/17 59/1/17
f 57/4/19 58/3/19 64/2/19 63/1/19
f 60/4/5 62/3/5 64/2/5 58/1/5
f 61/4/6 59/3/6 57/2/6 63/1/6

v -210.10330200195312 261.82501220703125 476.05694580078125
v -210.10330200195312 561.82501220703125 476.05694580078125
v -422.2353515625 261.82501220703125 263.92489624023438
v -422.2353515625 561.82501220703125 263.92489624023438
v -454.05514526367188 261.82501220703125 295.74472045898438
v -454.05514526367188 561.82501220703125 295.74472045898438
v -241.92311096191406 261.82501220703125 507.87673950195312
v -241.92311096191406 561.82501220703125 507.87673950195312
# 8 vertices

# 0 normal

# 0 texture coordinate

o Cube_9
usemtl Mat 9
f 67/4/9 68/3/9 66/2/9 65/1/9
f 71/4/18 72/3/18 70/2/18 69/1/18

usemtl default
f 69/4/17 70/3/17 68/2/17 67/1/17
f 65/4/19 66/3/19 72/2/19 71/1/19
f 68/4/5 70/3/5 72/2/5 66/1/5
f 69/4/6 67/3/6 65/2/6 71/1/6

v 272.06246948242188 105.97224426269531 -447.78265380859375
v 272.06246948242188 405.97222900390625 -447.78265380859375
v 484.19448852539062 105.97224426269531 -235.65061950683594
v 484.19448852539062 405.97222900390625 -235.65061950683594
v 516.0142822265625 105.97224426269531 -267.47042846679688
v 516.0142822265625 405.97222900390625 -267.47042846679688
v 303.88226318359375 105.97224426269531 -479.60244750976562
v 303.88226318359375 405.97222900390625 -479.60244750976562
# 8 vertices

# 0 normal

# 0 texture coordinate

o Cube_10
usemtl Mat 10
f 75/4/7 76/3/7 74/2/7 73/1/7
f 79/4/9 80/3/9 78/2/9 77/1/9

usemtl default
f 77/4/8 78/3/8 76/2/8 75/1/8
f 73/4/10 74/3/10 80/2/10 79/1/10
f 76/4/5 78/3/5 80/2/5 74/1/5
f 77/4/6 75/3/6 73/2/6 79/1/6

v 535.146240234375 192.4041748046875 -110.94538879394531
v 535.146240234375 492.4041748046875 -110.94538879394531
v 535.146240234375 192.4041748046875 189.05461120605469
v 535.146240234375 492.4041748046875 189.05461120605469
v 580.146240234375 192.4041748046875 189.05461120605469
v 580.146240234375 492.4041748046875 189.05461120605469
v 580.146240234375 192.4041748046875 -110.94538879394531
v 580.146240234375 492.4041748046875 -110.94538879394531
# 8 vertices

# 0 normal

# 0 texture coordinate

o Cube_11
usemtl Mat 11
f 83/4/4 84/3/4 82/2/4 81/1/4
f 87/4/2 88/3/2 86/2/2 85/1/2

usemtl default
f 85/4/1 86/3/1 84/2/1 83/1/1
f 81/4/3 82/3/3 88/2/3 87/1/3
f 84/4/5 86/3/5 88/2/5 82/1/5
f 85/4/6 83/3/6 81/2/6 87/1/6

v -498.78424072265625 219.71221923828125 187.91297912597656
v -498.78424072265625 519.71221923828125 187.91297912597656
v -498.78424072265625 219.71221923828125 -112.08702850341797
v -498.78424072265625 519.71221923828125 -112.08702850341797
v -543.78424072265625 219.71221923828125 -112.08702850341797
v -543.78424072265625 519.71221923828125 -112.08702850341797
v -543.78424072265625 219.71221923828125 187.91297912597656
v -543.78424072265625 519.71221923828125 187.91297912597656
# 8 vertices

# 0 normal

# 0 texture coordinate

o Cube_12
usemtl Mat 12
f 91/4/2 92/3/2 90/2/2 89/1/2
f 95/4/4 96/3/4 94/2/4 93/1/4

usemtl default
f 93/4/3 94/3/3 92/2/3 91/1/3
f 89/4/1 90/3/1 96/2/1 95/1/1
f 92/4/5 94/3/5 96/2/5 90/1/5
f 93/4/6 91/3/6 89/2/6 95/1/6

v 465.69464111328125 84.84430694580078 229.73252868652344
v 465.69464111328125 384.84429931640625 229.73252868652344
v 253.5626220703125 84.84430694580078 441.86456298828125
v 253.5626220703125 384.84429931640625 441.86456298828125
v 285.38241577148438 84.84430694580078 473.68438720703125
v 285.38241577148438 384.84429931640625 473.68438720703125
v 497.51446533203125 84.84430694580078 261.55233764648438
v 497.51446533203125 384.84429931640625 261.55233764648438
# 8 vertices

# 0 normal

# 0 texture coordinate

o Cube_13
usemtl Mat 13
f 99/4/11 100/3/11 98/2/11 97/1/11
f 103/4/13 104/3/13 102/2/13 101/1/13

usemtl default
f 101/4/12 102/3/12 100/2/12 99/1/12
f 97/4/14 98/3/14 104/2/14 103/1/14
f 100/4/5 102/3/5 104/2/5 98/1/5
f 101/4/6 99/3/6 97/2/6 103/1/6

v 133.05221557617188 118.22438049316406 493.52548217773438
v 133.05221557617188 418.224365234375 493.52548217773438
v -166.94778442382812 118.22438049316406 493.52548217773438
v -166.94778442382812 418.224365234375 493.52548217773438
v -166.94778442382812 118.22438049316406 538.5255126953125
v -166.94778442382812 418.224365234375 538.5255126953125
v 133.05221557617188 118.22438049316406 538.5255126953125
v 133.05221557617188 418.224365234375 538.5255126953125
# 8 vertices

# 0 normal

# 0 texture coordinate

o Cube_14
usemtl Mat 14
f 107/4/3 108/3/3 106/2/3 105/1/3
f 111/4/1 112/3/1 110/2/1 109/1/1

usemtl default
f 109/4/4 110/3/4 108/2/4 107/1/4
f 105/4/2 106/3/2 112/2/2 111/1/2
f 108/4/5 110/3/5 112/2/5 106/1/5
f 109/4/6 107/3/6 105/2/6 111/1/6

v -465.27902221679688 -53.57995223999023 -205.68606567382812
v -465.27902221679688 246.4200439453125 -205.68606567382812
v -253.14700317382812 -53.57995223999023 -417.81808471679688
v -253.14700317382812 246.4200439453125 -417.81808471679688
v -284.966796875 -53.57995223999023 -449.63790893554688
v -284.966796875 246.4200439453125 -449.63790893554688
v -497.09884643554688 -53.57995223999023 -237.505859375
v -497.09884643554688 246.4200439453125 -237.505859375
# 8 vertices

# 0 normal

# 0 texture coordinate

o Cube_15
usemtl Mat 15
f 115/4/13 116/3/13 114/2/13 113/1/13
f 119/4/10 120/3/10 118/2/10 117/1/10

usemtl default
f 117/4/15 118/3/15 116/2/15 115/1/15
f 113/4/16 114/3/16 120/2/16 119/1/16
f 116/4/5 118/3/5 120/2/5 114/1/5
f 117/4/6 115/3/6 113/2/6 119/1/6

