# WaveFront *.obj file (generated by CINEMA 4D)

mtllib ./9_square.mtl

v -156.41207885742188 -243.15261840820312 -555.31005859375
v -156.41207885742188 56.84738540649414 -555.31005859375
v 143.58792114257812 -243.15261840820312 -555.31005859375
v 143.58792114257812 56.84738540649414 -555.31005859375
v 143.58792114257812 -243.15261840820312 -600.31005859375
v 143.58792114257812 56.84738540649414 -600.31005859375
v -156.41207885742188 -243.15261840820312 -600.31005859375
v -156.41207885742188 56.84738540649414 -600.31005859375
# 8 vertices

vn 0 0 1
vn 1 0 0
vn 0 0 -1
vn -1 0 0
vn 0 1 0
vn 0 -1 0
# 6 normals

vt 0 0 0
vt 0 1 0
vt 1 1 0
vt 1 0 0
# 4 texture coordinates

o Cube_1
usemtl Mat 1
f 3/4/1 4/3/1 2/2/1 1/1/1
f 7/4/3 8/3/3 6/2/3 5/1/3

usemtl default
f 5/4/2 6/3/2 4/2/2 3/1/2
f 1/4/4 2/3/4 8/2/4 7/1/4
f 4/4/5 6/3/5 8/2/5 2/1/5
f 5/4/6 3/3/6 1/2/6 7/1/6

v 257.75180053710938 -79.62007141113281 -519.10638427734375
v 257.75180053710938 220.37992858886719 -519.10638427734375
v 487.56512451171875 -79.62007141113281 -326.27011108398438
v 487.56512451171875 220.37992858886719 -326.27011108398438
v 516.4906005859375 -79.62007141113281 -360.74212646484375
v 516.4906005859375 220.37992858886719 -360.74212646484375
v 286.67724609375 -79.62007141113281 -553.578369140625
v 286.67724609375 220.37992858886719 -553.578369140625
# 8 vertices

vn -0.64278757572174 0 0.76604443788528
vn 0.76604419946671 0 0.64278787374496
vn 0.64278745651245 0 -0.76604455709457
vn -0.76604431867599 0 -0.64278781414032
# 4 normals

# 0 texture coordinate

o Cube_2
usemtl Mat 2
f 11/4/7 12/3/7 10/2/7 9/1/7
f 15/4/9 16/3/9 14/2/9 13/1/9

usemtl default
f 13/4/8 14/3/8 12/2/8 11/1/8
f 9/4/10 10/3/10 16/2/10 15/1/10
f 12/4/5 14/3/5 16/2/5 10/1/5
f 13/4/6 11/3/6 9/2/6 15/1/6

v 526.60614013671875 -54.21281814575195 -215.00958251953125
v 526.60614013671875 245.78718566894531 -215.00958251953125
v 578.7005615234375 -54.21281814575195 80.4327392578125
v 578.7005615234375 245.78718566894531 80.4327392578125
v 623.01690673828125 -54.21281814575195 72.61856842041016
v 623.01690673828125 245.78718566894531 72.61856842041016
v 570.9224853515625 -54.21281814575195 -222.82376098632812
v 570.9224853515625 245.78718566894531 -222.82376098632812
# 8 vertices

vn -0.98480778932571 0 0.17364808917046
vn 0.17364825308323 0 0.98480772972107
vn 0.98480778932571 0 -0.17364808917046
vn -0.173648416996 0 -0.98480772972107
# 4 normals

# 0 texture coordinate

o Cube_3
usemtl Mat 3
f 19/4/11 20/3/11 18/2/11 17/1/11
f 23/4/13 24/3/13 22/2/13 21/1/13

usemtl default
f 21/4/12 22/3/12 20/2/12 19/1/12
f 17/4/14 18/3/14 24/2/14 23/1/14
f 20/4/5 22/3/5 24/2/5 18/1/5
f 21/4/6 19/3/6 17/2/6 23/1/6

v 558.20703125 -193.18397521972656 171.68618774414062
v 558.20703125 106.81602478027344 171.68618774414062
v 408.20700073242188 -193.18397521972656 431.49380493164062
v 408.20700073242188 106.81602478027344 431.49380493164062
v 447.17816162109375 -193.18397521972656 453.99380493164062
v 447.17816162109375 106.81602478027344 453.99380493164062
v 597.17816162109375 -193.18397521972656 194.18618774414062
v 597.17816162109375 106.81602478027344 194.18618774414062
# 8 vertices

vn -0.86602532863617 0 -0.50000011920929
vn -0.49999982118607 0 0.8660255074501
vn 0.86602538824081 0 0.5
vn 0.50000011920929 0 -0.86602532863617
# 4 normals

# 0 texture coordinate

o Cube_4
usemtl Mat 4
f 27/4/15 28/3/15 26/2/15 25/1/15
f 31/4/17 32/3/17 30/2/17 29/1/17

usemtl default
f 29/4/16 30/3/16 28/2/16 27/1/16
f 25/4/18 26/3/18 32/2/18 31/1/18
f 28/4/5 30/3/5 32/2/5 26/1/5
f 29/4/6 27/3/6 25/2/6 31/1/6

v 319.34024047851562 -248.78265380859375 492.17977905273438
v 319.34024047851562 51.21733856201172 492.17977905273438
v 37.43244934082031 -248.78265380859375 594.78582763671875
v 37.43244934082031 51.21733856201172 594.78582763671875
v 52.82335662841797 -248.78265380859375 637.07196044921875
v 52.82335662841797 51.21733856201172 637.07196044921875
v 334.73114013671875 -248.78265380859375 534.4659423828125
v 334.73114013671875 51.21733856201172 534.4659423828125
# 8 vertices

vn -0.34202015399933 0 -0.93969261646271
vn -0.93969249725342 0 0.34202042222023
vn 0.34202009439468 0 0.93969261646271
vn 0.93969261646271 0 -0.34202009439468
# 4 normals

# 0 texture coordinate

o Cube_5
usemtl Mat 5
f 35/4/19 36/3/19 34/2/19 33/1/19
f 39/4/21 40/3/21 38/2/21 37/1/21

usemtl default
f 37/4/20 38/3/20 36/2/20 35/1/20
f 33/4/22 34/3/22 40/2/22 39/1/22
f 36/4/5 38/3/5 40/2/5 34/1/5
f 37/4/6 35/3/6 33/2/6 39/1/6

v -48.23958587646484 -63.01981353759766 614.63079833984375
v -48.23958587646484 236.98017883300781 614.63079833984375
v -330.14736938476562 -63.01981353759766 512.0247802734375
v -330.14736938476562 236.98017883300781 512.0247802734375
v -345.53826904296875 -63.01981353759766 554.3109130859375
v -345.53826904296875 236.98017883300781 554.3109130859375
v -63.63048934936523 -63.01981353759766 656.9169921875
v -63.63048934936523 236.98017883300781 656.9169921875
# 8 vertices

vn 0.34202009439468 0 -0.93969261646271
vn -0.93969255685806 0 -0.34202027320862
vn -0.3420202434063 0 0.93969255685806
vn 0.939692735672 0 0.34201991558075
# 4 normals

# 0 texture coordinate

o Cube_6
usemtl Mat 6
f 43/4/23 44/3/23 42/2/23 41/1/23
f 47/4/25 48/3/25 46/2/25 45/1/25

usemtl default
f 45/4/24 46/3/24 44/2/24 43/1/24
f 41/4/26 42/3/26 48/2/26 47/1/26
f 44/4/5 46/3/5 48/2/5 42/1/5
f 45/4/6 43/3/6 41/2/6 47/1/6

v -417.70709228515625 -139.44245910644531 392.16262817382812
v -417.70709228515625 160.55754089355469 392.16262817382812
v -567.70709228515625 -139.44245910644531 132.35499572753906
v -567.70709228515625 160.55754089355469 132.35499572753906
v -606.67822265625 -139.44245910644531 154.85499572753906
v -606.67822265625 160.55754089355469 154.85499572753906
v -456.67822265625 -139.44245910644531 414.66262817382812
v -456.67822265625 160.55754089355469 414.66262817382812
# 8 vertices

vn 0.86602538824081 0 -0.5
vn -0.50000011920929 0 -0.86602532863617
vn -0.86602538824081 0 0.5
vn 0.50000011920929 0 0.86602532863617
# 4 normals

# 0 texture coordinate

o Cube_7
usemtl Mat 7
f 51/4/27 52/3/27 50/2/27 49/1/27
f 55/4/29 56/3/29 54/2/29 53/1/29

usemtl default
f 53/4/28 54/3/28 52/2/28 51/1/28
f 49/4/30 50/3/30 56/2/30 55/1/30
f 52/4/5 54/3/5 56/2/5 50/1/5
f 53/4/6 51/3/6 49/2/6 55/1/6

v -572.64996337890625 -202.63307189941406 36.81656646728516
v -572.64996337890625 97.36692810058594 36.81656646728516
v -520.55548095703125 -202.63307189941406 -258.62576293945312
v -520.55548095703125 97.36692810058594 -258.62576293945312
v -564.871826171875 -202.63307189941406 -266.43994140625
v -564.871826171875 97.36692810058594 -266.43994140625
v -616.96630859375 -202.63307189941406 29.00239753723145
v -616.96630859375 97.36692810058594 29.00239753723145
# 8 vertices

vn 0.98480772972107 0 0.17364826798439
vn 0.173648416996 0 -0.98480772972107
vn -0.98480772972107 0 -0.17364825308323
vn -0.17364820837975 0 0.98480772972107
# 4 normals

# 0 texture coordinate

o Cube_8
usemtl Mat 8
f 59/4/31 60/3/31 58/2/31 57/1/31
f 63/4/33 64/3/33 62/2/33 61/1/33

usemtl default
f 61/4/32 62/3/32 60/2/32 59/1/32
f 57/4/34 58/3/34 64/2/34 63/1/34
f 60/4/5 62/3/5 64/2/5 58/1/5
f 61/4/6 59/3/6 57/2/6 63/1/6

v -454.04705810546875 -247.87867736816406 -342.52960205078125
v -454.04705810546875 52.12131500244141 -342.52960205078125
v -224.23371887207031 -247.87867736816406 -535.36590576171875
v -224.23371887207031 52.12131500244141 -535.36590576171875
v -253.15916442871094 -247.87867736816406 -569.837890625
v -253.15916442871094 52.12131500244141 -569.837890625
v -482.97250366210938 -247.87867736816406 -377.00161743164062
v -482.97250366210938 52.12131500244141 -377.00161743164062
# 8 vertices

vn 0.64278763532639 0 0.76604437828064
vn 0.76604431867599 0 -0.64278781414032
vn -0.64278757572174 0 -0.76604443788528
vn -0.76604455709457 0 0.6427875161171
# 4 normals

# 0 texture coordinate

o Cube_9
usemtl Mat 9
f 67/4/35 68/3/35 66/2/35 65/1/35
f 71/4/37 72/3/37 70/2/37 69/1/37

usemtl default
f 69/4/36 70/3/36 68/2/36 67/1/36
f 65/4/38 66/3/38 72/2/38 71/1/38
f 68/4/5 70/3/5 72/2/5 66/1/5
f 69/4/6 67/3/6 65/2/6 71/1/6

