# WaveFront *.obj file (generated by CINEMA 4D)

mtllib ./6_paysage.mtl

v -220.21290588378906 -107.25847625732422 -551.99468994140625
v -220.21290588378906 192.74153137207031 -551.99468994140625
v 203.78709411621094 -107.25847625732422 -551.99468994140625
v 203.78709411621094 192.74153137207031 -551.99468994140625
v 203.78709411621094 -107.25847625732422 -596.99468994140625
v 203.78709411621094 192.74153137207031 -596.99468994140625
v -220.21290588378906 -107.25847625732422 -596.99468994140625
v -220.21290588378906 192.74153137207031 -596.99468994140625
# 8 vertices

vn 0 0 1
vn 1 0 0
vn 0 0 -1
vn -1 0 0
vn 0 1 0
vn 0 -1 0
# 6 normals

vt 0 0 0
vt 0 1 0
vt 1 1 0
vt 1 0 0
# 4 texture coordinates

o Cube_1
usemtl Mat 1
f 3/4/1 4/3/1 2/2/1 1/1/1
f 7/4/3 8/3/3 6/2/3 5/1/3

usemtl default
f 5/4/2 6/3/2 4/2/2 3/1/2
f 1/4/4 2/3/4 8/2/4 7/1/4
f 4/4/5 6/3/5 8/2/5 2/1/5
f 5/4/6 3/3/6 1/2/6 7/1/6

v 195.43023681640625 -193.32096862792969 563.5279541015625
v 195.43023681640625 106.67902374267578 563.5279541015625
v -228.56976318359375 -193.32096862792969 563.5279541015625
v -228.56976318359375 106.67902374267578 563.5279541015625
v -228.56976318359375 -193.32096862792969 608.5279541015625
v -228.56976318359375 106.67902374267578 608.5279541015625
v 195.43023681640625 -193.32096862792969 608.5279541015625
v 195.43023681640625 106.67902374267578 608.5279541015625
# 8 vertices

# 0 normal

# 0 texture coordinate

o Cube_2
usemtl Mat 2
f 11/4/3 12/3/3 10/2/3 9/1/3
f 15/4/1 16/3/1 14/2/1 13/1/1

usemtl default
f 13/4/4 14/3/4 12/2/4 11/1/4
f 9/4/2 10/3/2 16/2/2 15/1/2
f 12/4/5 14/3/5 16/2/5 10/1/5
f 13/4/6 11/3/6 9/2/6 15/1/6

v 365.0966796875 -118.28992462158203 -442.19839477539062
v 365.0966796875 181.71006774902344 -442.19839477539062
v 577.0966796875 -118.28992462158203 -75.00361633300781
v 577.0966796875 181.71006774902344 -75.00361633300781
v 616.06781005859375 -118.28992462158203 -97.50361633300781
v 616.06781005859375 181.71006774902344 -97.50361633300781
v 404.06781005859375 -118.28992462158203 -464.69839477539062
v 404.06781005859375 181.71006774902344 -464.69839477539062
# 8 vertices

vn -0.86602538824081 0 0.5
vn 0.50000011920929 0 0.86602532863617
vn 0.86602538824081 0 -0.5
vn -0.50000011920929 0 -0.86602532863617
# 4 normals

# 0 texture coordinate

o Cube_3
usemtl Mat 3
f 19/4/7 20/3/7 18/2/7 17/1/7
f 23/4/9 24/3/9 22/2/9 21/1/9

usemtl default
f 21/4/8 22/3/8 20/2/8 19/1/8
f 17/4/10 18/3/10 24/2/10 23/1/10
f 20/4/5 22/3/5 24/2/5 18/1/5
f 21/4/6 19/3/6 17/2/6 23/1/6

v -417.08071899414062 -150.72604370117188 452.98590087890625
v -417.08071899414062 149.27395629882812 452.98590087890625
v -629.08074951171875 -150.72604370117188 85.7911376953125
v -629.08074951171875 149.27395629882812 85.7911376953125
v -668.0518798828125 -150.72604370117188 108.2911376953125
v -668.0518798828125 149.27395629882812 108.2911376953125
v -456.0518798828125 -150.72604370117188 475.48590087890625
v -456.0518798828125 149.27395629882812 475.48590087890625
# 8 vertices

vn 0.86602538824081 0 -0.50000005960464
vn 0.49999982118607 0 0.8660255074501
# 2 normals

# 0 texture coordinate

o Cube_4
usemtl Mat 4
f 27/4/11 28/3/11 26/2/11 25/1/11
f 31/4/7 32/3/7 30/2/7 29/1/7

usemtl default
f 29/4/10 30/3/10 28/2/10 27/1/10
f 25/4/12 26/3/12 32/2/12 31/1/12
f 28/4/5 30/3/5 32/2/5 26/1/5
f 29/4/6 27/3/6 25/2/6 31/1/6

v 575.91900634765625 -192.55874633789062 84.64601135253906
v 575.91900634765625 107.44125366210938 84.64601135253906
v 363.91900634765625 -192.55874633789062 451.84078979492188
v 363.91900634765625 107.44125366210938 451.84078979492188
v 402.89016723632812 -192.55874633789062 474.34078979492188
v 402.89016723632812 107.44125366210938 474.34078979492188
v 614.89013671875 -192.55874633789062 107.14601135253906
v 614.89013671875 107.44125366210938 107.14601135253906
# 8 vertices

vn -0.86602538824081 0 -0.5
vn -0.49999982118607 0 0.8660255074501
vn 0.86602544784546 0 0.49999997019768
vn 0.50000011920929 0 -0.86602532863617
# 4 normals

# 0 texture coordinate

o Cube_5
usemtl Mat 5
f 35/4/13 36/3/13 34/2/13 33/1/13
f 39/4/15 40/3/15 38/2/15 37/1/15

usemtl default
f 37/4/14 38/3/14 36/2/14 35/1/14
f 33/4/16 34/3/16 40/2/16 39/1/16
f 36/4/5 38/3/5 40/2/5 34/1/5
f 37/4/6 35/3/6 33/2/6 39/1/6

v -576.9346923828125 -223.27923583984375 -128.87966918945312
v -576.9346923828125 76.72076416015625 -128.87966918945312
v -364.9346923828125 -223.27923583984375 -496.07443237304688
v -364.9346923828125 76.72076416015625 -496.07443237304688
v -403.90582275390625 -223.27923583984375 -518.574462890625
v -403.90582275390625 76.72076416015625 -518.574462890625
v -615.90582275390625 -223.27923583984375 -151.37966918945312
v -615.90582275390625 76.72076416015625 -151.37966918945312
# 8 vertices

vn 0.86602538824081 0 0.5
vn 0.50000065565109 0 -0.86602503061295
vn -0.86602538824081 0 -0.49999997019768
vn -0.50000011920929 0 0.86602532863617
# 4 normals

# 0 texture coordinate

o Cube_6
usemtl Mat 6
f 43/4/17 44/3/17 42/2/17 41/1/17
f 47/4/19 48/3/19 46/2/19 45/1/19

usemtl default
f 45/4/18 46/3/18 44/2/18 43/1/18
f 41/4/20 42/3/20 48/2/20 47/1/20
f 44/4/5 46/3/5 48/2/5 42/1/5
f 45/4/6 43/3/6 41/2/6 47/1/6

