# WaveFront *.obj file (generated by CINEMA 4D)

mtllib ./9_portrait.mtl

v -158.20260620117188 -186.16029357910156 -690.49176025390625
v -158.20260620117188 237.83970642089844 -690.49176025390625
v 141.79739379882812 -186.16029357910156 -690.49176025390625
v 141.79739379882812 237.83970642089844 -690.49176025390625
v 141.79739379882812 -186.16029357910156 -735.49176025390625
v 141.79739379882812 237.83970642089844 -735.49176025390625
v -158.20260620117188 -186.16029357910156 -735.49176025390625
v -158.20260620117188 237.83970642089844 -735.49176025390625
# 8 vertices

vn 0 0 1
vn 1 0 0
vn 0 0 -1
vn -1 0 0
vn 0 1 0
vn 0 -1 0
# 6 normals

vt 0 0 0
vt 0 1 0
vt 1 1 0
vt 1 0 0
# 4 texture coordinates

o Cube_1
usemtl Mat 1
f 3/4/1 4/3/1 2/2/1 1/1/1
f 7/4/3 8/3/3 6/2/3 5/1/3

usemtl default
f 5/4/2 6/3/2 4/2/2 3/1/2
f 1/4/4 2/3/4 8/2/4 7/1/4
f 4/4/5 6/3/5 8/2/5 2/1/5
f 5/4/6 3/3/6 1/2/6 7/1/6

v 306.12252807617188 -144.668701171875 -670.57293701171875
v 306.12252807617188 279.331298828125 -670.57293701171875
v 548.82763671875 -144.668701171875 -494.23739624023438
v 548.82763671875 279.331298828125 -494.23739624023438
v 575.2779541015625 -144.668701171875 -530.64312744140625
v 575.2779541015625 279.331298828125 -530.64312744140625
v 332.57284545898438 -144.668701171875 -706.97869873046875
v 332.57284545898438 279.331298828125 -706.97869873046875
# 8 vertices

vn -0.58778512477875 0 0.80901712179184
vn 0.80901694297791 0 0.58778530359268
vn 0.58778524398804 0 -0.80901700258255
vn -0.80901718139648 0 -0.58778500556946
# 4 normals

# 0 texture coordinate

o Cube_2
usemtl Mat 2
f 11/4/7 12/3/7 10/2/7 9/1/7
f 15/4/9 16/3/9 14/2/9 13/1/9

usemtl default
f 13/4/8 14/3/8 12/2/8 11/1/8
f 9/4/10 10/3/10 16/2/10 15/1/10
f 12/4/5 14/3/5 16/2/5 10/1/5
f 13/4/6 11/3/6 9/2/6 15/1/6

v 609.34344482421875 -239.50920104980469 -359.5240478515625
v 609.34344482421875 184.49079895019531 -359.5240478515625
v 702.04852294921875 -239.50920104980469 -74.20709228515625
v 702.04852294921875 184.49079895019531 -74.20709228515625
v 744.8460693359375 -239.50920104980469 -88.11285400390625
v 744.8460693359375 184.49079895019531 -88.11285400390625
v 652.1409912109375 -239.50920104980469 -373.4298095703125
v 652.1409912109375 184.49079895019531 -373.4298095703125
# 8 vertices

vn -0.95105654001236 0 0.30901691317558
vn 0.30901688337326 0 0.95105654001236
vn 0.95105654001236 0 -0.30901691317558
vn -0.30901688337326 0 -0.95105654001236
# 4 normals

# 0 texture coordinate

o Cube_3
usemtl Mat 3
f 19/4/11 20/3/11 18/2/11 17/1/11
f 23/4/13 24/3/13 22/2/13 21/1/13

usemtl default
f 21/4/12 22/3/12 20/2/12 19/1/12
f 17/4/14 18/3/14 24/2/14 23/1/14
f 20/4/5 22/3/5 24/2/5 18/1/5
f 21/4/6 19/3/6 17/2/6 23/1/6

v 712.59320068359375 -278.72637939453125 51.23517227172852
v 712.59320068359375 145.27363586425781 51.23517227172852
v 619.8880615234375 -278.72637939453125 336.5521240234375
v 619.8880615234375 145.27363586425781 336.5521240234375
v 662.68560791015625 -278.72637939453125 350.4578857421875
v 662.68560791015625 145.27363586425781 350.4578857421875
v 755.3907470703125 -278.72637939453125 65.14093780517578
v 755.3907470703125 145.27363586425781 65.14093780517578
# 8 vertices

vn -0.95105648040771 0 -0.30901712179184
vn -0.30901688337326 0 0.95105654001236
vn 0.95105648040771 0 0.30901712179184
vn 0.30901697278023 0 -0.95105654001236
# 4 normals

# 0 texture coordinate

o Cube_4
usemtl Mat 4
f 27/4/15 28/3/15 26/2/15 25/1/15
f 31/4/17 32/3/17 30/2/17 29/1/17

usemtl default
f 29/4/16 30/3/16 28/2/16 27/1/16
f 25/4/18 26/3/18 32/2/18 31/1/18
f 28/4/5 30/3/5 32/2/5 26/1/5
f 29/4/6 27/3/6 25/2/6 31/1/6

v 515.9453125 -283.10552978515625 513.97344970703125
v 515.9453125 140.89445495605469 513.97344970703125
v 273.24020385742188 -283.10552978515625 690.30902099609375
v 273.24020385742188 140.89445495605469 690.30902099609375
v 299.6905517578125 -283.10552978515625 726.71478271484375
v 299.6905517578125 140.89445495605469 726.71478271484375
v 542.3956298828125 -283.10552978515625 550.37921142578125
v 542.3956298828125 140.89445495605469 550.37921142578125
# 8 vertices

vn -0.58778524398804 0 -0.80901700258255
vn -0.80901682376862 0 0.58778548240662
vn 0.58778524398804 0 0.80901700258255
vn 0.80901718139648 0 -0.58778500556946
# 4 normals

# 0 texture coordinate

o Cube_5
usemtl Mat 5
f 35/4/19 36/3/19 34/2/19 33/1/19
f 39/4/21 40/3/21 38/2/21 37/1/21

usemtl default
f 37/4/20 38/3/20 36/2/20 35/1/20
f 33/4/22 34/3/22 40/2/22 39/1/22
f 36/4/5 38/3/5 40/2/5 34/1/5
f 37/4/6 35/3/6 33/2/6 39/1/6

v 175.88093566894531 -156.18374633789062 732.4464111328125
v 175.88093566894531 267.81625366210938 732.4464111328125
v -124.11907196044922 -156.18374633789062 732.4464111328125
v -124.11907196044922 267.81625366210938 732.4464111328125
v -124.11907196044922 -156.18374633789062 777.4464111328125
v -124.11907196044922 267.81625366210938 777.4464111328125
v 175.88093566894531 -156.18374633789062 777.4464111328125
v 175.88093566894531 267.81625366210938 777.4464111328125
# 8 vertices

# 0 normal

# 0 texture coordinate

o Cube_6
usemtl Mat 6
f 43/4/3 44/3/3 42/2/3 41/1/3
f 47/4/1 48/3/1 46/2/1 45/1/1

usemtl default
f 45/4/4 46/3/4 44/2/4 43/1/4
f 41/4/2 42/3/2 48/2/2 47/1/2
f 44/4/5 46/3/5 48/2/5 42/1/5
f 45/4/6 43/3/6 41/2/6 47/1/6

v -262.37863159179688 -214.11585998535156 626.28369140625
v -262.37863159179688 209.88414001464844 626.28369140625
v -505.08370971679688 -214.11585998535156 449.9481201171875
v -505.08370971679688 209.88414001464844 449.9481201171875
v -531.5340576171875 -214.11585998535156 486.3538818359375
v -531.5340576171875 209.88414001464844 486.3538818359375
v -288.82894897460938 -214.11585998535156 662.689453125
v -288.82894897460938 209.88414001464844 662.689453125
# 8 vertices

vn 0.58778524398804 0 -0.80901700258255
vn -0.80901682376862 0 -0.58778548240662
vn -0.58778524398804 0 0.80901700258255
vn 0.80901718139648 0 0.58778500556946
# 4 normals

# 0 texture coordinate

o Cube_7
usemtl default
f 53/4/24 54/3/24 52/2/24 51/1/24
f 49/4/26 50/3/26 56/2/26 55/1/26
f 52/4/5 54/3/5 56/2/5 50/1/5
f 53/4/6 51/3/6 49/2/6 55/1/6

usemtl Mat 7
f 51/4/23 52/3/23 50/2/23 49/1/23
f 55/4/25 56/3/25 54/2/25 53/1/25

v -592.7730712890625 -268.08612060546875 319.66482543945312
v -592.7730712890625 155.91386413574219 319.66482543945312
v -685.4781494140625 -268.08612060546875 34.34785461425781
v -685.4781494140625 155.91386413574219 34.34785461425781
v -728.27569580078125 -268.08612060546875 48.25362014770508
v -728.27569580078125 155.91386413574219 48.25362014770508
v -635.57061767578125 -268.08612060546875 333.57058715820312
v -635.57061767578125 155.91386413574219 333.57058715820312
# 8 vertices

vn -0.30901697278023 0 -0.95105654001236
# 1 normal

# 0 texture coordinate

o Cube_8
usemtl Mat 8
f 59/4/13 60/3/13 58/2/13 57/1/13
f 63/4/11 64/3/11 62/2/11 61/1/11

usemtl default
f 61/4/27 62/3/27 60/2/27 59/1/27
f 57/4/12 58/3/12 64/2/12 63/1/12
f 60/4/5 62/3/5 64/2/5 58/1/5
f 61/4/6 59/3/6 57/2/6 63/1/6

v -707.000732421875 -229.50213623046875 -90.48866271972656
v -707.000732421875 194.49786376953125 -90.48866271972656
v -614.29559326171875 -229.50213623046875 -375.80560302734375
v -614.29559326171875 194.49786376953125 -375.80560302734375
v -657.0931396484375 -229.50213623046875 -389.71136474609375
v -657.0931396484375 194.49786376953125 -389.71136474609375
v -749.7982177734375 -229.50213623046875 -104.39442443847656
v -749.7982177734375 194.49786376953125 -104.39442443847656
# 8 vertices

vn 0.30901688337326 0 -0.95105654001236
vn -0.95105654001236 0 -0.30901691317558
vn -0.3090173304081 0 0.95105642080307
# 3 normals

# 0 texture coordinate

o Cube_9
usemtl Mat 9
f 67/4/17 68/3/17 66/2/17 65/1/17
f 71/4/29 72/3/29 70/2/29 69/1/29

usemtl default
f 69/4/28 70/3/28 68/2/28 67/1/28
f 65/4/30 66/3/30 72/2/30 71/1/30
f 68/4/5 70/3/5 72/2/5 66/1/5
f 69/4/6 67/3/6 65/2/6 71/1/6

