# WaveFront *.obj file (generated by CINEMA 4D)

mtllib ./5_square.mtl

v -158.22576904296875 -92.26839447021484 -347.123291015625
v -158.22576904296875 207.73159790039062 -347.123291015625
v 141.77423095703125 -92.26839447021484 -347.123291015625
v 141.77423095703125 207.73159790039062 -347.123291015625
v 141.77423095703125 -92.26839447021484 -392.123291015625
v 141.77423095703125 207.73159790039062 -392.123291015625
v -158.22576904296875 -92.26839447021484 -392.123291015625
v -158.22576904296875 207.73159790039062 -392.123291015625
# 8 vertices

vn 0 0 1
vn 1 0 0
vn 0 0 -1
vn -1 0 0
vn 0 1 0
vn 0 -1 0
# 6 normals

vt 0 0 0
vt 0 1 0
vt 1 1 0
vt 1 0 0
# 4 texture coordinates

o Cube_1_0
usemtl Mat 1
f 3/4/1 4/3/1 2/2/1 1/1/1
f 7/4/3 8/3/3 6/2/3 5/1/3

usemtl default
f 5/4/2 6/3/2 4/2/2 3/1/2
f 1/4/4 2/3/4 8/2/4 7/1/4
f 4/4/5 6/3/5 8/2/5 2/1/5
f 5/4/6 3/3/6 1/2/6 7/1/6

v 240.04637145996094 -257.0380859375 -212.89511108398438
v 240.04637145996094 42.9619255065918 -212.89511108398438
v 332.75146484375 -257.0380859375 72.42183685302734
v 332.75146484375 42.9619255065918 72.42183685302734
v 375.54901123046875 -257.0380859375 58.51607513427734
v 375.54901123046875 42.9619255065918 58.51607513427734
v 282.84393310546875 -257.0380859375 -226.80087280273438
v 282.84393310546875 42.9619255065918 -226.80087280273438
# 8 vertices

vn -0.95105654001236 0 0.30901697278023
vn 0.30901691317558 0 0.95105654001236
vn 0.95105654001236 0 -0.30901691317558
vn -0.30901682376862 0 -0.951056599617
# 4 normals

# 0 texture coordinate

o Cube_3_1
usemtl Mat 3
f 11/4/7 12/3/7 10/2/7 9/1/7
f 15/4/9 16/3/9 14/2/9 13/1/9

usemtl default
f 13/4/8 14/3/8 12/2/8 11/1/8
f 9/4/10 10/3/10 16/2/10 15/1/10
f 12/4/5 14/3/5 16/2/5 10/1/5
f 13/4/6 11/3/6 9/2/6 15/1/6

v 267.9061279296875 -202.364013671875 179.15908813476562
v 267.9061279296875 97.63599395751953 179.15908813476562
v 25.20102882385254 -202.364013671875 355.49465942382812
v 25.20102882385254 97.63599395751953 355.49465942382812
v 51.6513671875 -202.364013671875 391.90042114257812
v 51.6513671875 97.63599395751953 391.90042114257812
v 294.35647583007812 -202.364013671875 215.56484985351562
v 294.35647583007812 97.63599395751953 215.56484985351562
# 8 vertices

vn -0.58778524398804 0 -0.80901700258255
vn -0.80901694297791 0 0.58778536319733
vn 0.58778524398804 0 0.80901700258255
vn 0.80901682376862 0 -0.58778548240662
# 4 normals

# 0 texture coordinate

o Cube_6_2
usemtl Mat 6
f 19/4/11 20/3/11 18/2/11 17/1/11
f 23/4/13 24/3/13 22/2/13 21/1/13

usemtl default
f 21/4/12 22/3/12 20/2/12 19/1/12
f 17/4/14 18/3/14 24/2/14 23/1/14
f 20/4/5 22/3/5 24/2/5 18/1/5
f 21/4/6 19/3/6 17/2/6 23/1/6

v -99.02682495117188 -180.21908569335938 384.47308349609375
v -99.02682495117188 119.78091430664062 384.47308349609375
v -341.73193359375 -180.21908569335938 208.13751220703125
v -341.73193359375 119.78091430664062 208.13751220703125
v -368.1822509765625 -180.21908569335938 244.54327392578125
v -368.1822509765625 119.78091430664062 244.54327392578125
v -125.47715759277344 -180.21908569335938 420.87884521484375
v -125.47715759277344 119.78091430664062 420.87884521484375
# 8 vertices

vn 0.58778524398804 0 -0.80901700258255
vn -0.80901718139648 0 -0.58778500556946
vn -0.58778524398804 0 0.80901700258255
vn 0.80901700258255 0 0.58778524398804
# 4 normals

# 0 texture coordinate

o Cube_8_3
usemtl Mat 8
f 27/4/15 28/3/15 26/2/15 25/1/15
f 31/4/17 32/3/17 30/2/17 29/1/17

usemtl default
f 29/4/16 30/3/16 28/2/16 27/1/16
f 25/4/18 26/3/18 32/2/18 31/1/18
f 28/4/5 30/3/5 32/2/5 26/1/5
f 29/4/6 27/3/6 25/2/6 31/1/6

v -355.59967041015625 -42.03404235839844 20.96474838256836
v -355.59967041015625 257.96597290039062 20.96474838256836
v -262.89456176757812 -42.03404235839844 -264.35220336914062
v -262.89456176757812 257.96597290039062 -264.35220336914062
v -305.69210815429688 -42.03404235839844 -278.25796508789062
v -305.69210815429688 257.96597290039062 -278.25796508789062
v -398.39718627929688 -42.03404235839844 7.05898427963257
v -398.39718627929688 257.96597290039062 7.05898427963257
# 8 vertices

vn 0.95105648040771 0 0.30901703238487
vn 0.30901691317558 0 -0.95105654001236
vn -0.95105654001236 0 -0.30901691317558
vn -0.30901715159416 0 0.95105648040771
# 4 normals

# 0 texture coordinate

o Cube_10_4
usemtl Mat 10
f 35/4/19 36/3/19 34/2/19 33/1/19
f 39/4/21 40/3/21 38/2/21 37/1/21

usemtl default
f 37/4/20 38/3/20 36/2/20 35/1/20
f 33/4/22 34/3/22 40/2/22 39/1/22
f 36/4/5 38/3/5 40/2/5 34/1/5
f 37/4/6 35/3/6 33/2/6 39/1/6

