# WaveFront *.obj file (generated by CINEMA 4D)

mtllib ./5_square.mtl

v -120 -120 -364
v -120 120 -364
v 120 -120 -364
v 120 120 -364
v 120 -120 -400
v 120 120 -400
v -120 -120 -400
v -120 120 -400
# 8 vertices

vn 0 0 1
vn 1 0 0
vn 0 0 -1
vn -1 0 0
vn 0 1 0
vn 0 -1 0
# 6 normals

vt 0 0 0
vt 0 1 0
vt 1 1 0
vt 1 0 0
# 4 texture coordinates

o Cube_0
usemtl Mat
f 3/4/1 4/3/1 2/2/1 1/1/1
f 7/4/3 8/3/3 6/2/3 5/1/3

usemtl default
f 5/4/2 6/3/2 4/2/2 3/1/2
f 1/4/4 2/3/4 8/2/4 7/1/4
f 4/4/5 6/3/5 8/2/5 2/1/5
f 5/4/6 3/3/6 1/2/6 7/1/6

v 255.23324584960938 -120 -285.92303466796875
v 255.23324584960938 120 -285.92303466796875
v 375.23324584960938 -120 -78.07695007324219
v 375.23324584960938 120 -78.07695007324219
v 406.41015625 -120 -96.07695007324219
v 406.41015625 120 -96.07695007324219
v 286.41015625 -120 -303.92303466796875
v 286.41015625 120 -303.92303466796875
# 8 vertices

vn -0.86602538824081 0 0.50000005960464
vn 0.50000005960464 0 0.86602538824081
vn 0.86602538824081 0 -0.50000005960464
vn -0.50000005960464 0 -0.86602538824081
# 4 normals

# 0 texture coordinate

o Cube_1
usemtl Mat_1
f 11/4/7 12/3/7 10/2/7 9/1/7
f 15/4/9 16/3/9 14/2/9 13/1/9

usemtl default
f 13/4/8 14/3/8 12/2/8 11/1/8
f 9/4/10 10/3/10 16/2/10 15/1/10
f 12/4/5 14/3/5 16/2/5 10/1/5
f 13/4/6 11/3/6 9/2/6 15/1/6

v 375.23324584960938 -120 78.07695007324219
v 375.23324584960938 120 78.07695007324219
v 255.23324584960938 -120 285.92303466796875
v 255.23324584960938 120 285.92303466796875
v 286.41015625 -120 303.92303466796875
v 286.41015625 120 303.92303466796875
v 406.41015625 -120 96.07695007324219
v 406.41015625 120 96.07695007324219
# 8 vertices

vn -0.86602538824081 0 -0.50000005960464
vn -0.50000005960464 0 0.86602538824081
vn 0.86602538824081 0 0.50000005960464
vn 0.50000005960464 0 -0.86602538824081
# 4 normals

# 0 texture coordinate

o Cube_2
usemtl Mat_2
f 19/4/11 20/3/11 18/2/11 17/1/11
f 23/4/13 24/3/13 22/2/13 21/1/13

usemtl default
f 21/4/12 22/3/12 20/2/12 19/1/12
f 17/4/14 18/3/14 24/2/14 23/1/14
f 20/4/5 22/3/5 24/2/5 18/1/5
f 21/4/6 19/3/6 17/2/6 23/1/6

v 120 -120 364
v 120 120 364
v -120 -120 364
v -120 120 364
v -120 -120 400
v -120 120 400
v 120 -120 400
v 120 120 400
# 8 vertices

# 0 normal

# 0 texture coordinate

o Cube_3
usemtl Mat_3
f 27/4/3 28/3/3 26/2/3 25/1/3
f 31/4/1 32/3/1 30/2/1 29/1/1

usemtl default
f 29/4/4 30/3/4 28/2/4 27/1/4
f 25/4/2 26/3/2 32/2/2 31/1/2
f 28/4/5 30/3/5 32/2/5 26/1/5
f 29/4/6 27/3/6 25/2/6 31/1/6

v -255.23324584960938 -120 285.92303466796875
v -255.23324584960938 120 285.92303466796875
v -375.23324584960938 -120 78.07695007324219
v -375.23324584960938 120 78.07695007324219
v -406.41015625 -120 96.07695007324219
v -406.41015625 120 96.07695007324219
v -286.41015625 -120 303.92303466796875
v -286.41015625 120 303.92303466796875
# 8 vertices

# 0 normal

# 0 texture coordinate

o Cube_4
usemtl Mat_4
f 35/4/9 36/3/9 34/2/9 33/1/9
f 39/4/7 40/3/7 38/2/7 37/1/7

usemtl default
f 37/4/10 38/3/10 36/2/10 35/1/10
f 33/4/8 34/3/8 40/2/8 39/1/8
f 36/4/5 38/3/5 40/2/5 34/1/5
f 37/4/6 35/3/6 33/2/6 39/1/6

