# WaveFront *.obj file (generated by CINEMA 4D)

mtllib ./10_square.mtl

v -92.5 -92.5 -481
v -92.5 92.5 -481
v 92.5 -92.5 -481
v 92.5 92.5 -481
v 92.5 -92.5 -501
v 92.5 92.5 -501
v -92.5 -92.5 -501
v -92.5 92.5 -501
# 8 vertices

vn 0 0 1
vn 1 0 0
vn 0 0 -1
vn -1 0 0
vn 0 1 0
vn 0 -1 0
# 6 normals

o Cube
usemtl Mat
f 3//1 4//1 2//1 1//1
f 5//2 6//2 4//2 3//2
f 7//3 8//3 6//3 5//3
f 1//4 2//4 8//4 7//4
f 4//5 6//5 8//5 2//5
f 5//6 3//6 1//6 7//6

v 207.89064025878906 -92.5 -443.50732421875
v 207.89064025878906 92.5 -443.50732421875
v 357.55877685546875 -92.5 -334.76702880859375
v 357.55877685546875 92.5 -334.76702880859375
v 369.31448364257812 -92.5 -350.9473876953125
v 369.31448364257812 92.5 -350.9473876953125
v 219.64634704589844 -92.5 -459.68765258789062
v 219.64634704589844 92.5 -459.68765258789062
# 8 vertices

vn -0.58778536319733 0 0.80901694297791
vn 0.80901730060577 0 0.58778482675552
vn 0.58778530359268 0 -0.80901700258255
vn -0.80901676416397 0 -0.58778554201126
# 4 normals

o Cube_1
usemtl Mat_1
f 11//7 12//7 10//7 9//7
f 13//8 14//8 12//8 11//8
f 15//9 16//9 14//9 13//9
f 9//10 10//10 16//10 15//10
f 12//5 14//5 16//5 10//5
f 13//6 11//6 9//6 15//6

v 428.87411499023438 -92.5 -236.60990905761719
v 428.87411499023438 92.5 -236.60990905761719
v 486.04226684570312 -92.5 -60.66444778442383
v 486.04226684570312 92.5 -60.66444778442383
v 505.06338500976562 -92.5 -66.84478759765625
v 505.06338500976562 92.5 -66.84478759765625
v 447.89523315429688 -92.5 -242.79023742675781
v 447.89523315429688 92.5 -242.79023742675781
# 8 vertices

vn -0.95105648040771 0 0.30901703238487
vn 0.30901721119881 0 0.95105642080307
vn 0.95105648040771 0 -0.30901706218719
vn -0.309016674757 0 -0.951056599617
# 4 normals

o Cube_2
usemtl Mat_2
f 19//11 20//11 18//11 17//11
f 21//12 22//12 20//12 19//12
f 23//13 24//13 22//13 21//13
f 17//14 18//14 24//14 23//14
f 20//5 22//5 24//5 18//5
f 21//6 19//6 17//6 23//6

v 486.04226684570312 -92.5 60.66444778442383
v 486.04226684570312 92.5 60.66444778442383
v 428.87411499023438 -92.5 236.60990905761719
v 428.87411499023438 92.5 236.60990905761719
v 447.89523315429688 -92.5 242.79023742675781
v 447.89523315429688 92.5 242.79023742675781
v 505.06338500976562 -92.5 66.84478759765625
v 505.06338500976562 92.5 66.84478759765625
# 8 vertices

vn -0.95105648040771 0 -0.30901703238487
vn -0.309016674757 0 0.951056599617
vn 0.95105648040771 0 0.30901706218719
vn 0.30901721119881 0 -0.95105642080307
# 4 normals

o Cube_3
usemtl Mat_3
f 27//15 28//15 26//15 25//15
f 29//16 30//16 28//16 27//16
f 31//17 32//17 30//17 29//17
f 25//18 26//18 32//18 31//18
f 28//5 30//5 32//5 26//5
f 29//6 27//6 25//6 31//6

v 357.55877685546875 -92.5 334.76702880859375
v 357.55877685546875 92.5 334.76702880859375
v 207.89064025878906 -92.5 443.50732421875
v 207.89064025878906 92.5 443.50732421875
v 219.64634704589844 -92.5 459.68765258789062
v 219.64634704589844 92.5 459.68765258789062
v 369.31448364257812 -92.5 350.9473876953125
v 369.31448364257812 92.5 350.9473876953125
# 8 vertices

vn -0.58778536319733 0 -0.80901694297791
vn -0.80901676416397 0 0.58778554201126
vn 0.58778530359268 0 0.80901700258255
vn 0.80901730060577 0 -0.58778482675552
# 4 normals

o Cube_4
usemtl Mat_4
f 35//19 36//19 34//19 33//19
f 37//20 38//20 36//20 35//20
f 39//21 40//21 38//21 37//21
f 33//22 34//22 40//22 39//22
f 36//5 38//5 40//5 34//5
f 37//6 35//6 33//6 39//6

v 92.5 -92.5 481
v 92.5 92.5 481
v -92.5 -92.5 481
v -92.5 92.5 481
v -92.5 -92.5 501
v -92.5 92.5 501
v 92.5 -92.5 501
v 92.5 92.5 501
# 8 vertices

# 0 normal

o Cube_5
usemtl Mat_5
f 43//3 44//3 42//3 41//3
f 45//4 46//4 44//4 43//4
f 47//1 48//1 46//1 45//1
f 41//2 42//2 48//2 47//2
f 44//5 46//5 48//5 42//5
f 45//6 43//6 41//6 47//6

v -207.89064025878906 -92.5 443.50732421875
v -207.89064025878906 92.5 443.50732421875
v -357.55877685546875 -92.5 334.76702880859375
v -357.55877685546875 92.5 334.76702880859375
v -369.31448364257812 -92.5 350.9473876953125
v -369.31448364257812 92.5 350.9473876953125
v -219.64634704589844 -92.5 459.68765258789062
v -219.64634704589844 92.5 459.68765258789062
# 8 vertices

vn 0.58778536319733 0 -0.80901694297791
vn -0.80901730060577 0 -0.58778482675552
vn -0.58778530359268 0 0.80901700258255
vn 0.80901676416397 0 0.58778554201126
# 4 normals

o Cube_6
usemtl Mat_6
f 51//23 52//23 50//23 49//23
f 53//24 54//24 52//24 51//24
f 55//25 56//25 54//25 53//25
f 49//26 50//26 56//26 55//26
f 52//5 54//5 56//5 50//5
f 53//6 51//6 49//6 55//6

v -428.87411499023438 -92.5 236.60990905761719
v -428.87411499023438 92.5 236.60990905761719
v -486.04226684570312 -92.5 60.66444778442383
v -486.04226684570312 92.5 60.66444778442383
v -505.06338500976562 -92.5 66.84478759765625
v -505.06338500976562 92.5 66.84478759765625
v -447.89523315429688 -92.5 242.79023742675781
v -447.89523315429688 92.5 242.79023742675781
# 8 vertices

vn 0.95105648040771 0 -0.30901703238487
vn -0.30901721119881 0 -0.95105642080307
vn -0.95105648040771 0 0.30901706218719
vn 0.309016674757 0 0.951056599617
# 4 normals

o Cube_7
usemtl Mat_7
f 59//27 60//27 58//27 57//27
f 61//28 62//28 60//28 59//28
f 63//29 64//29 62//29 61//29
f 57//30 58//30 64//30 63//30
f 60//5 62//5 64//5 58//5
f 61//6 59//6 57//6 63//6

v -486.04226684570312 -92.5 -60.66444778442383
v -486.04226684570312 92.5 -60.66444778442383
v -428.87411499023438 -92.5 -236.60990905761719
v -428.87411499023438 92.5 -236.60990905761719
v -447.89523315429688 -92.5 -242.79023742675781
v -447.89523315429688 92.5 -242.79023742675781
v -505.06338500976562 -92.5 -66.84478759765625
v -505.06338500976562 92.5 -66.84478759765625
# 8 vertices

vn 0.95105648040771 0 0.30901703238487
vn 0.309016674757 0 -0.951056599617
vn -0.95105648040771 0 -0.30901706218719
vn -0.30901721119881 0 0.95105642080307
# 4 normals

o Cube_8
usemtl Mat_8
f 67//31 68//31 66//31 65//31
f 69//32 70//32 68//32 67//32
f 71//33 72//33 70//33 69//33
f 65//34 66//34 72//34 71//34
f 68//5 70//5 72//5 66//5
f 69//6 67//6 65//6 71//6

v -357.55877685546875 -92.5 -334.76702880859375
v -357.55877685546875 92.5 -334.76702880859375
v -207.89064025878906 -92.5 -443.50732421875
v -207.89064025878906 92.5 -443.50732421875
v -219.64634704589844 -92.5 -459.68765258789062
v -219.64634704589844 92.5 -459.68765258789062
v -369.31448364257812 -92.5 -350.9473876953125
v -369.31448364257812 92.5 -350.9473876953125
# 8 vertices

vn 0.58778536319733 0 0.80901694297791
vn 0.80901676416397 0 -0.58778554201126
vn -0.58778530359268 0 -0.80901700258255
vn -0.80901730060577 0 0.58778482675552
# 4 normals

o Cube_9
usemtl Mat_9
f 75//35 76//35 74//35 73//35
f 77//36 78//36 76//36 75//36
f 79//37 80//37 78//37 77//37
f 73//38 74//38 80//38 79//38
f 76//5 78//5 80//5 74//5
f 77//6 75//6 73//6 79//6

